# Blender v2.93.3 OBJ File: ''
# www.blender.org
mtllib fern.mtl
o ferns_1_ferns_1_0
v -91.520920 223.652420 -53.381237
v -181.176712 288.019836 -61.810650
v -89.496971 227.163391 0.027521
v 1.793103 12.712018 23.608616
v -30.897007 107.766693 63.755695
v -20.832664 -0.088423 64.323402
v 3.775057 21.695824 18.928598
v 20.717281 120.749527 -3.946018
v 39.748600 13.218814 -16.905533
v 56.867153 208.411469 28.127321
v 74.310646 228.497803 139.067596
v 130.531662 225.308563 63.469296
v 13.098422 189.421021 90.348633
v 103.509102 213.232513 -69.166229
v 160.395462 264.725677 -156.949661
v 51.224339 213.703308 -71.703323
v 9.617349 12.712010 12.906683
v -23.064869 107.766693 -27.246853
v -25.662132 -0.088430 -17.506748
v 314.711121 124.945351 -39.043522
v 266.037140 144.035004 54.084988
v 337.160736 98.416595 26.868032
v -63.061535 201.751495 132.876236
v -11.326253 191.698456 201.478836
v 23.812595 183.137299 146.390717
v -65.864403 101.688309 1.185989
v -129.564499 165.303116 96.531113
v 5.457006 23.620972 19.993307
v -59.246334 115.399925 -47.917461
v -53.082104 12.207113 25.260683
v -66.500282 147.553680 -139.605743
v -14.346524 137.768829 -235.453430
v -72.885643 126.354980 -230.186020
v 217.199829 136.264282 -77.473587
v 243.587479 170.563782 -11.826569
v 59.301006 103.555405 -72.336533
v 6.955166 20.658886 21.439779
v 65.336967 125.761139 17.517982
v 145.925842 151.132050 -78.155548
v 151.961823 173.337799 11.698969
v 71.372917 103.555412 107.372482
v 12.250454 -1.546838 100.268494
v 173.331314 147.134430 81.724182
v -195.429962 291.232513 -32.477722
v -2.638150 110.730347 -24.600338
v 8.443161 3.069817 -23.546066
v -112.826118 213.462479 37.173119
v 153.309113 231.636780 137.442795
v 127.019386 223.826569 181.224152
v -22.391510 117.310165 62.325012
v -22.514687 13.885553 62.709942
v 80.952950 256.982391 -207.457642
v 57.723118 110.730316 18.345394
v 54.443134 3.069782 28.982647
v 19.582661 213.462677 -102.081863
v -195.089859 141.353241 -196.030151
v -89.844147 163.174774 -195.745499
v -148.609604 100.648575 -251.231628
v -181.307770 117.539787 -91.650650
v -136.324402 171.553818 -140.543991
v -100.614014 103.543846 36.981602
v 5.899326 20.514114 24.062796
v 52.467896 122.890442 -57.661655
v -13.093831 171.114563 -121.010696
v -147.194244 156.909363 -27.479816
v -91.078911 197.731995 277.701447
v -149.692413 183.043121 189.526047
v -159.405655 167.843811 270.403687
v 72.038467 4.641373 -21.858574
v 25.633118 119.749420 82.388840
v 73.120827 2.392618 53.055531
v 123.202553 82.474007 326.092133
v 43.730282 110.248474 283.777893
v 68.538994 54.371349 347.690033
v -66.418083 -12.185644 -17.079361
v 172.372360 111.319176 239.284698
v 117.708824 138.351135 260.882568
v 87.621323 92.626282 69.667984
v 7.199160 24.203316 22.745852
v 32.957794 119.658234 91.265839
v 85.343346 154.079071 176.697906
v 140.006882 127.047089 155.100021
v -21.705776 91.555557 112.863724
v -47.464405 -3.899366 44.343716
v 11.364787 125.976402 199.593231
v -20.079929 81.891693 -303.771423
v 44.192547 125.284035 -240.720795
v 38.459152 69.406937 -309.038849
v 58.654064 106.591110 -58.280636
v 63.996090 11.136185 14.725945
v 51.444805 141.011963 -150.820908
v -319.210571 115.975037 168.079834
v -293.015320 121.129578 45.278454
v -358.074585 63.151016 91.362778
v -215.287292 122.567993 198.712601
v -254.151291 173.953613 121.995514
v -32.384293 125.252556 112.986710
v 6.129552 35.455711 21.495239
v -71.248299 143.339966 36.269630
v -126.346001 167.891205 150.933533
v -165.210007 185.978638 74.216454
v -110.112335 90.515953 -40.447430
v -32.734493 -17.368311 -55.221821
v -204.074036 155.469849 -2.500607
v 1.659847 -1.546844 -57.388943
v 189.282654 223.159821 101.608673
v -237.780655 57.626602 -146.337509
v -60.709652 -7.467924 62.990280
v -17.792599 189.144867 297.892761
v 177.866119 55.442062 304.494324
v 61.862690 -2.828651 1.147985
v -78.619041 70.477859 -298.504120
v -280.346527 97.887619 244.796921
v 44.993542 17.368296 98.212326
vt 1.000000 0.388900
vt 0.998027 0.000000
vt 0.500000 0.421983
vt 0.500000 1.000000
vt -0.001815 0.750000
vt 0.000000 1.000000
vt 0.500000 1.000000
vt 0.029755 0.750000
vt 0.000000 1.000000
vt 0.036046 0.500000
vt 1.006960 0.250000
vt 0.000000 0.250000
vt 1.000000 0.500000
vt 1.000000 0.388901
vt 0.998027 0.000000
vt 0.500000 0.421983
vt 0.500000 1.000000
vt -0.001815 0.750000
vt 0.000000 1.000000
vt 0.500000 0.000000
vt 1.000000 0.250000
vt 1.000000 0.000000
vt 0.500000 0.416844
vt 0.000000 0.250000
vt 0.000000 0.500000
vt 1.003377 0.750000
vt 1.000000 0.500000
vt 0.500000 1.000000
vt 0.005731 0.750000
vt 0.000000 1.000000
vt 0.001131 0.500000
vt 0.500000 0.250000
vt 0.000000 0.250000
vt 0.000000 0.250000
vt 0.500000 0.250000
vt 0.000000 0.750000
vt 0.500000 1.000000
vt 0.500000 0.750000
vt 0.000000 0.500000
vt 0.500000 0.500000
vt 1.000000 0.750000
vt 1.000000 1.000000
vt 1.000000 0.500000
vt 0.000000 0.000000
vt 1.000000 0.750000
vt 1.000000 1.000000
vt 0.000000 0.416010
vt 0.500000 0.000000
vt 1.000000 0.000000
vt 1.000000 0.750000
vt 1.000000 1.000000
vt 0.000000 0.000000
vt 1.000000 0.750000
vt 1.000000 1.000000
vt 0.000000 0.416008
vt 0.500000 0.000000
vt 1.000000 0.250000
vt 1.000000 0.000000
vt 0.000000 0.250000
vt 0.500000 0.250000
vt 0.000000 0.750000
vt 0.500000 1.000000
vt 1.000429 0.750000
vt 0.994745 0.500000
vt 0.000000 0.500000
vt 0.500000 0.000000
vt 1.000000 0.250000
vt 1.000000 0.000000
vt 1.000000 1.000000
vt 0.000000 0.750000
vt 0.008446 1.000000
vt 0.500000 0.000000
vt 1.000000 0.250000
vt 1.000000 0.000000
vt 1.000000 1.000000
vt 0.000000 0.250000
vt 0.500000 0.250000
vt 0.000000 0.750000
vt 0.500000 1.000000
vt 0.500000 0.750000
vt 0.500000 0.500000
vt 0.000000 0.500000
vt 1.000000 0.750000
vt 1.000000 1.000000
vt 1.000000 0.500000
vt 0.500000 0.000000
vt 1.000000 0.250000
vt 1.000000 0.000000
vt 1.000000 0.750000
vt 1.000000 1.000000
vt 1.000000 0.500000
vt 0.500000 0.000000
vt 1.000000 0.250000
vt 1.000000 0.000000
vt 0.000000 0.250000
vt 0.500000 0.250000
vt 0.000000 0.750000
vt 0.500000 1.000000
vt 0.500000 0.750000
vt 0.000000 0.500000
vt 0.500000 0.500000
vt 1.000000 0.750000
vt 1.000000 1.000000
vt 1.000000 0.500000
vt 0.000000 1.000000
vt 0.000000 0.000000
vt 0.000000 0.000000
vt 0.000000 1.000000
vt 0.000000 0.000000
vt 0.000000 0.000000
vt 0.000000 1.000000
vt 0.000000 0.000000
vt 0.000000 0.000000
vt 0.000000 1.000000
vn 0.6884 0.7216 -0.0735
vn 0.5075 0.8569 0.0909
vn 0.6238 0.7371 0.2599
vn 0.9412 0.1194 0.3160
vn 0.8595 0.3640 0.3588
vn 0.8598 0.0829 0.5039
vn -0.7963 -0.0138 -0.6048
vn -0.8097 0.2462 -0.5327
vn -0.7100 -0.0409 -0.7030
vn -0.5600 0.7854 -0.2638
vn -0.1790 0.9828 -0.0456
vn -0.0557 0.9911 -0.1211
vn -0.6615 0.6976 -0.2751
vn -0.0222 0.7962 0.6046
vn -0.2009 0.9323 0.3008
vn -0.2656 0.7873 0.5564
vn -0.5004 0.1194 0.8575
vn -0.5074 0.3857 0.7706
vn -0.6678 0.0829 0.7397
vn 0.5140 0.8534 -0.0871
vn 0.3758 0.8969 0.2330
vn 0.5705 0.8107 0.1320
vn 0.0194 0.9458 -0.3242
vn 0.1506 0.9883 0.0249
vn 0.2528 0.8651 -0.4333
vn 0.3850 0.5108 -0.7687
vn -0.2169 0.8587 -0.4643
vn 0.0888 0.6074 0.7894
vn 0.0824 0.8165 0.5714
vn -0.0390 0.5765 0.8162
vn 0.0194 0.9944 0.1037
vn -0.0181 0.9187 -0.3944
vn -0.2099 0.8787 -0.4287
vn 0.1437 0.8973 -0.4173
vn 0.2452 0.9620 -0.1203
vn -0.7223 0.6805 -0.1231
vn -0.8753 0.4800 0.0588
vn -0.6641 0.7444 0.0692
vn -0.1663 0.9598 -0.2260
vn -0.2079 0.9751 0.0774
vn -0.6664 0.7111 0.2242
vn -0.8610 0.4715 0.1906
vn -0.1383 0.9280 0.3460
vn 0.4562 0.8635 0.2150
vn 0.8985 0.3739 0.2299
vn 0.9876 0.1028 0.1183
vn 0.4715 0.6891 0.5503
vn 0.0099 0.9998 -0.0199
vn -0.0361 0.9873 0.1545
vn -0.8149 0.2777 -0.5088
vn -0.8572 -0.0009 -0.5149
vn -0.2463 0.9377 0.2450
vn -0.3966 0.4013 0.8256
vn -0.3161 0.1028 0.9431
vn -0.3916 0.8280 0.4013
vn -0.5122 0.8434 -0.1622
vn -0.0847 0.9417 -0.3257
vn -0.1498 0.7313 -0.6654
vn -0.7481 0.6481 0.1428
vn -0.3053 0.9522 -0.0074
vn 0.3318 0.6505 0.6832
vn 0.4645 0.3727 0.8034
vn 0.3649 0.6572 0.6595
vn 0.1183 0.9527 0.2799
vn -0.0833 0.9445 0.3176
vn -0.1077 0.9929 0.0497
vn -0.3076 0.9504 -0.0459
vn -0.4086 0.9046 0.1209
vn 0.5909 0.3218 0.7398
vn 0.4316 0.6040 -0.6700
vn 0.5071 0.2848 -0.8135
vn 0.1935 0.7459 0.6373
vn -0.1804 0.8519 0.4917
vn -0.1064 0.7277 0.6776
vn 0.4328 0.1407 -0.8904
vn 0.5128 0.8101 0.2840
vn 0.1904 0.9072 0.3751
vn 0.0904 0.7268 -0.6809
vn -0.2949 0.6084 -0.7368
vn -0.2232 0.8263 -0.5171
vn 0.0250 0.9953 -0.0932
vn 0.3504 0.9041 -0.2447
vn -0.5411 0.7245 -0.4269
vn -0.5396 0.5822 -0.6082
vn -0.3600 0.9311 0.0590
vn -0.0487 0.7751 -0.6299
vn 0.1500 0.8874 -0.4358
vn 0.1061 0.7653 -0.6349
vn 0.1246 0.8077 0.5763
vn 0.1981 0.6024 0.7732
vn 0.0992 0.9890 0.1097
vn -0.4896 0.8487 0.2001
vn -0.6160 0.7591 -0.2106
vn -0.7070 0.6967 -0.1216
vn -0.1528 0.8392 0.5219
vn -0.3763 0.9127 0.1594
vn 0.6421 0.7522 -0.1480
vn 0.6929 0.5593 -0.4550
vn 0.5078 0.7753 -0.3757
vn 0.1944 0.9566 0.2171
vn 0.0888 0.9882 -0.1250
vn 0.4507 0.6121 -0.6498
vn 0.5798 0.5036 -0.6405
vn -0.0724 0.8973 -0.4354
vn -0.8788 0.4715 -0.0738
vn 0.1135 0.9863 -0.1193
vn -0.8044 0.5473 0.2311
vn 0.3665 0.3351 0.8680
vn 0.1072 0.9937 0.0335
vn 0.5348 0.6634 0.5234
vn -0.0286 0.5880 -0.8084
vn -0.2042 0.7661 -0.6094
vn -0.1474 0.9434 0.2971
vn 0.7698 0.5866 -0.2517
g ferns_1_ferns_1_0_ferns_1_ferns_1_0_ferns_1
usemtl ferns_1
s 1
f 1/1/1 2/2/2 3/3/3
f 4/4/4 5/5/5 6/6/6
f 7/7/7 8/8/8 9/9/9
f 10/10/10 11/11/11 12/12/12
f 13/13/13 11/11/11 10/10/10
f 14/14/14 15/15/15 16/16/16
f 17/17/17 18/18/18 19/19/19
f 20/20/20 21/21/21 22/22/22
f 23/23/23 24/24/24 25/25/25
f 26/26/26 27/27/27 23/23/23
f 28/28/28 29/29/29 30/30/30
f 31/31/31 32/32/32 33/33/33
f 20/20/20 34/34/34 35/35/35
f 36/36/36 37/37/37 38/38/38
f 39/39/39 38/38/38 40/40/40
f 34/34/34 40/40/40 35/35/35
f 41/41/41 37/37/37 42/42/42
f 43/43/43 38/38/38 41/41/41
f 35/35/35 43/43/43 21/21/21
f 44/44/44 3/3/3 2/2/2
f 45/45/45 4/4/4 46/46/46
f 5/5/5 3/3/3 47/47/47
f 3/3/3 45/45/45 1/1/1
f 48/48/48 12/12/12 11/11/11
f 11/11/11 49/49/49 48/48/48
f 50/50/50 7/7/7 51/51/51
f 13/13/13 8/8/8 50/50/50
f 52/52/52 16/16/16 15/15/15
f 53/53/53 17/17/17 54/54/54
f 18/18/18 16/16/16 55/55/55
f 16/16/16 53/53/53 14/14/14
f 56/56/56 57/57/57 58/58/58
f 56/56/56 59/59/59 60/60/60
f 61/61/61 62/62/62 63/63/63
f 61/61/61 64/64/64 65/65/65
f 60/60/60 65/65/65 64/64/64
f 66/66/66 67/67/67 68/68/68
f 62/62/62 69/69/69 63/63/63
f 64/64/64 57/57/57 60/60/60
f 66/66/66 24/24/24 23/23/23
f 23/23/23 70/70/70 26/26/26
f 71/71/71 26/26/26 70/70/70
f 72/72/72 73/73/73 74/74/74
f 71/71/71 75/75/75 26/26/26
f 27/27/27 67/67/67 23/23/23
f 72/72/72 76/76/76 77/77/77
f 78/78/78 79/79/79 80/80/80
f 81/81/81 78/78/78 80/80/80
f 77/77/77 82/82/82 81/81/81
f 83/83/83 79/79/79 84/84/84
f 85/85/85 80/80/80 83/83/83
f 73/73/73 81/81/81 85/85/85
f 86/86/86 87/87/87 88/88/88
f 86/86/86 33/33/33 32/32/32
f 89/89/89 28/28/28 90/90/90
f 91/91/91 29/29/29 89/89/89
f 32/32/32 91/91/91 87/87/87
f 92/92/92 93/93/93 94/94/94
f 92/92/92 95/95/95 96/96/96
f 97/97/97 98/98/98 99/99/99
f 100/100/100 99/99/99 101/101/101
f 96/96/96 100/100/100 101/101/101
f 102/102/102 98/98/98 103/103/103
f 104/104/104 99/99/99 102/102/102
f 96/96/96 104/104/104 93/93/93
f 20/20/20 35/35/35 21/21/21
f 36/36/36 105/105/105 37/37/37
f 39/39/39 36/36/36 38/38/38
f 34/34/34 39/39/39 40/40/40
f 41/41/41 38/38/38 37/37/37
f 43/43/43 40/40/40 38/38/38
f 35/35/35 40/40/40 43/43/43
f 44/44/44 47/47/47 3/3/3
f 45/45/45 5/5/5 4/4/4
f 3/3/3 5/5/5 45/45/45
f 48/48/48 106/106/106 12/12/12
f 50/50/50 8/8/8 7/7/7
f 13/13/13 10/10/10 8/8/8
f 52/52/52 55/55/55 16/16/16
f 53/53/53 18/18/18 17/17/17
f 16/16/16 18/18/18 53/53/53
f 56/56/56 60/60/60 57/57/57
f 56/56/56 107/107/107 59/59/59
f 61/61/61 108/108/108 62/62/62
f 61/61/61 63/63/63 64/64/64
f 60/60/60 59/59/59 65/65/65
f 66/66/66 23/23/23 67/67/67
f 66/66/66 109/109/109 24/24/24
f 23/23/23 25/25/25 70/70/70
f 72/72/72 77/77/77 73/73/73
f 72/72/72 110/110/110 76/76/76
f 78/78/78 111/111/111 79/79/79
f 81/81/81 82/82/82 78/78/78
f 77/77/77 76/76/76 82/82/82
f 83/83/83 80/80/80 79/79/79
f 85/85/85 81/81/81 80/80/80
f 73/73/73 77/77/77 81/81/81
f 86/86/86 32/32/32 87/87/87
f 86/86/86 112/112/112 33/33/33
f 89/89/89 29/29/29 28/28/28
f 91/91/91 31/31/31 29/29/29
f 32/32/32 31/31/31 91/91/91
f 92/92/92 96/96/96 93/93/93
f 92/92/92 113/113/113 95/95/95
f 97/97/97 114/114/114 98/98/98
f 100/100/100 97/97/97 99/99/99
f 96/96/96 95/95/95 100/100/100
f 102/102/102 99/99/99 98/98/98
f 104/104/104 101/101/101 99/99/99
f 96/96/96 101/101/101 104/104/104
